<svg width="512" height="512" viewBox="0 0 512 512" fill="none" xmlns="http://www.w3.org/2000/svg">
<rect x="66.8227" y="56" width="381.844" height="400" rx="108" fill="white"/>
<path d="M220.55 118.75C246.383 118.75 266.216 123.333 280.05 132.5C293.883 141.5 300.8 156.333 300.8 177C300.8 197.833 293.8 212.917 279.8 222.25C265.8 231.417 245.8 236 219.8 236H207.55V294H168.55V123.25C177.05 121.583 186.05 120.417 195.55 119.75C205.05 119.083 213.383 118.75 220.55 118.75ZM223.05 152C220.216 152 217.383 152.083 214.549 152.25C211.883 152.417 209.55 152.583 207.55 152.75V202.75H219.8C233.3 202.75 243.466 200.917 250.3 197.25C257.133 193.583 260.55 186.75 260.55 176.75C260.55 171.917 259.633 167.917 257.8 164.75C256.133 161.583 253.633 159.083 250.3 157.25C247.133 155.25 243.216 153.917 238.55 153.25C233.883 152.417 228.716 152 223.05 152Z" fill="#00AEFF"/>
<path d="M249.688 398.12V224.87H365.688V257.62H288.688V293.87H357.188V326.62H288.688V398.12H249.688Z" fill="#555555"/>
<path d="M249.688 398.12H248.688V399.12H249.688V398.12ZM249.688 224.87V223.87H248.688V224.87H249.688ZM365.688 224.87H366.688V223.87H365.688V224.87ZM365.688 257.62V258.62H366.688V257.62H365.688ZM288.688 257.62V256.62H287.688V257.62H288.688ZM288.688 293.87H287.688V294.87H288.688V293.87ZM357.188 293.87H358.188V292.87H357.188V293.87ZM357.188 326.62V327.62H358.188V326.62H357.188ZM288.688 326.62V325.62H287.688V326.62H288.688ZM288.688 398.12V399.12H289.688V398.12H288.688ZM250.688 398.12V224.87H248.688V398.12H250.688ZM249.688 225.87H365.688V223.87H249.688V225.87ZM364.688 224.87V257.62H366.688V224.87H364.688ZM365.688 256.62H288.688V258.62H365.688V256.62ZM287.688 257.62V293.87H289.688V257.62H287.688ZM288.688 294.87H357.188V292.87H288.688V294.87ZM356.188 293.87V326.62H358.188V293.87H356.188ZM357.188 325.62H288.688V327.62H357.188V325.62ZM287.688 326.62V398.12H289.688V326.62H287.688ZM288.688 397.12H249.688V399.12H288.688V397.12Z" fill="#555555"/>
</svg>
