<svg width="28" height="34" viewBox="0 0 28 34" fill="none" xmlns="http://www.w3.org/2000/svg">
  <g id="favicon svg">
    <path id="P"
      d="M9.45424 2.22385C12.3476 2.22385 14.5689 2.73718 16.1182 3.76385C17.6676 4.77185 18.4422 6.43319 18.4422 8.74785C18.4422 11.0812 17.6582 12.7705 16.0902 13.8159C14.5222 14.8425 12.2822 15.3559 9.37024 15.3559H7.99824V21.8519H3.63024V2.72785C4.58224 2.54119 5.59024 2.41052 6.65424 2.33585C7.71824 2.26118 8.65157 2.22385 9.45424 2.22385ZM9.73424 5.94785C9.4169 5.94785 9.09957 5.95719 8.78223 5.97585C8.48357 5.99452 8.22224 6.01318 7.99824 6.03185V11.6319H9.37024C10.8822 11.6319 12.0209 11.4265 12.7862 11.0159C13.5516 10.6052 13.9342 9.83985 13.9342 8.71985C13.9342 8.17852 13.8316 7.73052 13.6262 7.37585C13.4396 7.02119 13.1596 6.74119 12.7862 6.53585C12.4316 6.31185 11.9929 6.16252 11.4702 6.08785C10.9476 5.99452 10.3689 5.94785 9.73424 5.94785Z"
      fill="#00AEFF" />
    <g id="F">
      <path d="M12.2818 30.909V12.891H24.3458V16.297H16.3378V20.067H23.4618V23.473H16.3378V30.909H12.2818Z"
        fill="#555555" />
      <path
        d="M12.2818 30.909H12.0818V31.109H12.2818V30.909ZM12.2818 12.891V12.691H12.0818V12.891H12.2818ZM24.3458 12.891H24.5458V12.691H24.3458V12.891ZM24.3458 16.297V16.497H24.5458V16.297H24.3458ZM16.3378 16.297V16.097H16.1378V16.297H16.3378ZM16.3378 20.067H16.1378V20.267H16.3378V20.067ZM23.4618 20.067H23.6618V19.867H23.4618V20.067ZM23.4618 23.473V23.673H23.6618V23.473H23.4618ZM16.3378 23.473V23.273H16.1378V23.473H16.3378ZM16.3378 30.909V31.109H16.5378V30.909H16.3378ZM12.4818 30.909V12.891H12.0818V30.909H12.4818ZM12.2818 13.091H24.3458V12.691H12.2818V13.091ZM24.1458 12.891V16.297H24.5458V12.891H24.1458ZM24.3458 16.097H16.3378V16.497H24.3458V16.097ZM16.1378 16.297V20.067H16.5378V16.297H16.1378ZM16.3378 20.267H23.4618V19.867H16.3378V20.267ZM23.2618 20.067V23.473H23.6618V20.067H23.2618ZM23.4618 23.273H16.3378V23.673H23.4618V23.273ZM16.1378 23.473V30.909H16.5378V23.473H16.1378ZM16.3378 30.709H12.2818V31.109H16.3378V30.709Z"
        fill="#555555" />
    </g>
  </g>
</svg>