<svg width="512" height="512" viewBox="0 0 512 512" fill="none" xmlns="http://www.w3.org/2000/svg">
<rect width="512" height="512" rx="120" fill="white"/>
<circle cx="256" cy="256" r="256" fill="white"/>
<path d="M220.539 53.63C258.772 53.63 288.125 60.4133 308.599 73.98C329.072 87.3 339.309 109.253 339.309 139.84C339.309 170.673 328.949 192.997 308.229 206.81C287.509 220.377 257.909 227.16 219.429 227.16H201.299V313H143.579V60.29C156.159 57.8233 169.479 56.0967 183.539 55.11C197.599 54.1233 209.932 53.63 220.539 53.63ZM224.239 102.84C220.045 102.84 215.852 102.963 211.659 103.21C207.712 103.457 204.259 103.703 201.299 103.95V177.95H219.429C239.409 177.95 254.455 175.237 264.569 169.81C274.682 164.383 279.739 154.27 279.739 139.47C279.739 132.317 278.382 126.397 275.669 121.71C273.202 117.023 269.502 113.323 264.569 110.61C259.882 107.65 254.085 105.677 247.179 104.69C240.272 103.457 232.625 102.84 224.239 102.84Z" fill="#00AEFF"/>
<path d="M257.454 470V213.59H429.134V262.06H315.174V315.71H416.554V364.18H315.174V470H257.454Z" fill="#555555"/>
<path d="M257.454 470H256.454V471H257.454V470ZM257.454 213.59V212.59H256.454V213.59H257.454ZM429.134 213.59H430.134V212.59H429.134V213.59ZM429.134 262.06V263.06H430.134V262.06H429.134ZM315.174 262.06V261.06H314.174V262.06H315.174ZM315.174 315.71H314.174V316.71H315.174V315.71ZM416.554 315.71H417.554V314.71H416.554V315.71ZM416.554 364.18V365.18H417.554V364.18H416.554ZM315.174 364.18V363.18H314.174V364.18H315.174ZM315.174 470V471H316.174V470H315.174ZM258.454 470V213.59H256.454V470H258.454ZM257.454 214.59H429.134V212.59H257.454V214.59ZM428.134 213.59V262.06H430.134V213.59H428.134ZM429.134 261.06H315.174V263.06H429.134V261.06ZM314.174 262.06V315.71H316.174V262.06H314.174ZM315.174 316.71H416.554V314.71H315.174V316.71ZM415.554 315.71V364.18H417.554V315.71H415.554ZM416.554 363.18H315.174V365.18H416.554V363.18ZM314.174 364.18V470H316.174V364.18H314.174ZM315.174 469H257.454V471H315.174V469Z" fill="#555555"/>
</svg>
