<svg width="512" height="512" viewBox="0 0 512 512" fill="none" xmlns="http://www.w3.org/2000/svg">
<circle cx="256" cy="256" r="256" fill="white"/>
<path d="M222.539 54.63C260.772 54.63 290.125 61.4133 310.599 74.98C331.072 88.3 341.309 110.253 341.309 140.84C341.309 171.673 330.949 193.997 310.229 207.81C289.509 221.377 259.909 228.16 221.429 228.16H203.299V314H145.579V61.29C158.159 58.8233 171.479 57.0967 185.539 56.11C199.599 55.1233 211.932 54.63 222.539 54.63ZM226.239 103.84C222.045 103.84 217.852 103.963 213.659 104.21C209.712 104.457 206.259 104.703 203.299 104.95V178.95H221.429C241.409 178.95 256.455 176.237 266.569 170.81C276.682 165.383 281.739 155.27 281.739 140.47C281.739 133.317 280.382 127.397 277.669 122.71C275.202 118.023 271.502 114.323 266.569 111.61C261.882 108.65 256.085 106.677 249.179 105.69C242.272 104.457 234.625 103.84 226.239 103.84Z" fill="#00AEFF"/>
<path d="M256.454 470V213.59H428.134V262.06H314.174V315.71H415.554V364.18H314.174V470H256.454Z" fill="#555555"/>
<path d="M256.454 470H255.454V471H256.454V470ZM256.454 213.59V212.59H255.454V213.59H256.454ZM428.134 213.59H429.134V212.59H428.134V213.59ZM428.134 262.06V263.06H429.134V262.06H428.134ZM314.174 262.06V261.06H313.174V262.06H314.174ZM314.174 315.71H313.174V316.71H314.174V315.71ZM415.554 315.71H416.554V314.71H415.554V315.71ZM415.554 364.18V365.18H416.554V364.18H415.554ZM314.174 364.18V363.18H313.174V364.18H314.174ZM314.174 470V471H315.174V470H314.174ZM257.454 470V213.59H255.454V470H257.454ZM256.454 214.59H428.134V212.59H256.454V214.59ZM427.134 213.59V262.06H429.134V213.59H427.134ZM428.134 261.06H314.174V263.06H428.134V261.06ZM313.174 262.06V315.71H315.174V262.06H313.174ZM314.174 316.71H415.554V314.71H314.174V316.71ZM414.554 315.71V364.18H416.554V315.71H414.554ZM415.554 363.18H314.174V365.18H415.554V363.18ZM313.174 364.18V470H315.174V364.18H313.174ZM314.174 469H256.454V471H314.174V469Z" fill="#555555"/>
</svg>
